<?xml version="1.0" encoding="UTF-8" standalone="no"?>
<!DOCTYPE svg PUBLIC "-//W3C//DTD SVG 1.1//EN"
 "http://www.w3.org/Graphics/SVG/1.1/DTD/svg11.dtd">
<!-- Generated by graphviz version 13.1.0 (20250701.0955)
 -->
<!-- Title: Gnss::Gnss Pages: 1 -->
<svg width="114pt" height="324pt"
 viewBox="0.00 0.00 114.00 324.00" xmlns="http://www.w3.org/2000/svg" xmlns:xlink="http://www.w3.org/1999/xlink">
<g id="graph0" class="graph" transform="scale(1 1) rotate(0) translate(4 320)">
<title>Gnss::Gnss</title>
<!-- Node1 -->
<g id="Node000001" class="node">
<title>Node1</title>
<g id="a_Node000001"><a xlink:title=" ">
<polygon fill="#999999" stroke="none" points="99.63,-228 6.21,-228 6.21,0 99.63,0 99.63,-228"/>
<text xml:space="preserve" text-anchor="start" x="26.8" y="-215" font-family="Helvetica,sans-Serif" font-size="10.00">Gnss::Gnss</text>
<text xml:space="preserve" text-anchor="start" x="10.21" y="-199" font-family="Helvetica,sans-Serif" font-size="10.00">+</text>
<text xml:space="preserve" text-anchor="start" x="20.05" y="-199" font-family="Helvetica,sans-Serif" font-size="10.00">__pad0__</text>
<text xml:space="preserve" text-anchor="start" x="10.21" y="-183" font-family="Helvetica,sans-Serif" font-size="10.00">+</text>
<text xml:space="preserve" text-anchor="start" x="20.05" y="-183" font-family="Helvetica,sans-Serif" font-size="10.00">m_gpsQuality</text>
<text xml:space="preserve" text-anchor="start" x="10.21" y="-167" font-family="Helvetica,sans-Serif" font-size="10.00">+</text>
<text xml:space="preserve" text-anchor="start" x="20.05" y="-167" font-family="Helvetica,sans-Serif" font-size="10.00">m_gnssEnabled</text>
<text xml:space="preserve" text-anchor="start" x="10.21" y="-151" font-family="Helvetica,sans-Serif" font-size="10.00">+</text>
<text xml:space="preserve" text-anchor="start" x="20.05" y="-151" font-family="Helvetica,sans-Serif" font-size="10.00">m_fixValid</text>
<text xml:space="preserve" text-anchor="start" x="10.21" y="-135" font-family="Helvetica,sans-Serif" font-size="10.00">+</text>
<text xml:space="preserve" text-anchor="start" x="20.05" y="-135" font-family="Helvetica,sans-Serif" font-size="10.00">m_seconds</text>
<text xml:space="preserve" text-anchor="start" x="10.21" y="-119" font-family="Helvetica,sans-Serif" font-size="10.00">+</text>
<text xml:space="preserve" text-anchor="start" x="20.05" y="-119" font-family="Helvetica,sans-Serif" font-size="10.00">m_microseconds</text>
<text xml:space="preserve" text-anchor="start" x="10.21" y="-103" font-family="Helvetica,sans-Serif" font-size="10.00">+</text>
<text xml:space="preserve" text-anchor="start" x="20.05" y="-103" font-family="Helvetica,sans-Serif" font-size="10.00">m_lastFixTime</text>
<text xml:space="preserve" text-anchor="start" x="10.21" y="-87" font-family="Helvetica,sans-Serif" font-size="10.00">+</text>
<text xml:space="preserve" text-anchor="start" x="20.05" y="-87" font-family="Helvetica,sans-Serif" font-size="10.00">m_thisFixTime</text>
<text xml:space="preserve" text-anchor="start" x="10.21" y="-71" font-family="Helvetica,sans-Serif" font-size="10.00">+</text>
<text xml:space="preserve" text-anchor="start" x="20.05" y="-71" font-family="Helvetica,sans-Serif" font-size="10.00">m_latitude</text>
<text xml:space="preserve" text-anchor="start" x="10.21" y="-55" font-family="Helvetica,sans-Serif" font-size="10.00">+</text>
<text xml:space="preserve" text-anchor="start" x="20.05" y="-55" font-family="Helvetica,sans-Serif" font-size="10.00">m_longitude</text>
<text xml:space="preserve" text-anchor="start" x="20.05" y="-39" font-family="Helvetica,sans-Serif" font-size="10.00">and 9 more...</text>
<text xml:space="preserve" text-anchor="start" x="10.21" y="-23" font-family="Helvetica,sans-Serif" font-size="10.00">+</text>
<text xml:space="preserve" text-anchor="start" x="20.05" y="-23" font-family="Helvetica,sans-Serif" font-size="10.00">Gnss()</text>
<text xml:space="preserve" text-anchor="start" x="10.21" y="-7" font-family="Helvetica,sans-Serif" font-size="10.00">+</text>
<text xml:space="preserve" text-anchor="start" x="20.05" y="-7" font-family="Helvetica,sans-Serif" font-size="10.00">~Gnss()</text>
<polygon fill="#666666" stroke="#666666" points="6.21,-210 6.21,-210 99.63,-210 99.63,-210 6.21,-210"/>
<polygon fill="#666666" stroke="#666666" points="6.21,-34 6.21,-34 18.05,-34 18.05,-34 6.21,-34"/>
<polygon fill="#666666" stroke="#666666" points="18.05,-34 18.05,-34 99.63,-34 99.63,-34 18.05,-34"/>
<polygon fill="none" stroke="#666666" points="6.21,0 6.21,-228 99.63,-228 99.63,0 6.21,0"/>
</a>
</g>
</g>
<!-- Node2 -->
<g id="Node000002" class="node">
<title>Node2</title>
<g id="a_Node000002"><a xlink:title=" ">
<polygon fill="white" stroke="none" points="105.83,-316 0,-316 0,-264 105.83,-264 105.83,-316"/>
<text xml:space="preserve" text-anchor="start" x="4" y="-303" font-family="Helvetica,sans-Serif" font-size="10.00">GnssComponentBase</text>
<text xml:space="preserve" text-anchor="start" x="50.14" y="-287" font-family="Helvetica,sans-Serif" font-size="10.00"> </text>
<text xml:space="preserve" text-anchor="start" x="50.14" y="-271" font-family="Helvetica,sans-Serif" font-size="10.00"> </text>
<polygon fill="#666666" stroke="#666666" points="0,-298 0,-298 105.83,-298 105.83,-298 0,-298"/>
<polygon fill="#666666" stroke="#666666" points="0,-282 0,-282 105.83,-282 105.83,-282 0,-282"/>
<polygon fill="none" stroke="#666666" points="0,-264 0,-316 105.83,-316 105.83,-264 0,-264"/>
</a>
</g>
</g>
<!-- Node2&#45;&gt;Node1 -->
<g id="edge1_Node000001_Node000002" class="edge">
<title>Node2&#45;&gt;Node1</title>
<g id="a_edge1_Node000001_Node000002"><a xlink:title=" ">
<path fill="none" stroke="#63b8ff" d="M52.92,-252.72C52.92,-245.03 52.92,-236.53 52.92,-227.64"/>
<polygon fill="none" stroke="#63b8ff" points="49.42,-252.56 52.92,-262.56 56.42,-252.56 49.42,-252.56"/>
</a>
</g>
</g>
</g>
</svg>
