<?xml version="1.0" encoding="UTF-8" standalone="no"?>
<!DOCTYPE svg PUBLIC "-//W3C//DTD SVG 1.1//EN"
 "http://www.w3.org/Graphics/SVG/1.1/DTD/svg11.dtd">
<!-- Generated by graphviz version 13.1.0 (20250701.0955)
 -->
<!-- Title: Gnss.cpp Pages: 1 -->
<svg width="788pt" height="164pt"
 viewBox="0.00 0.00 788.00 164.00" xmlns="http://www.w3.org/2000/svg" xmlns:xlink="http://www.w3.org/1999/xlink">
<g id="graph0" class="graph" transform="scale(1 1) rotate(0) translate(4 160)">
<title>Gnss.cpp</title>
<!-- Node1 -->
<g id="Node000001" class="node">
<title>Node1</title>
<g id="a_Node000001"><a xlink:title=" ">
<polygon fill="#999999" stroke="#666666" points="392.44,-156 334.2,-156 334.2,-136 392.44,-136 392.44,-156"/>
<text xml:space="preserve" text-anchor="middle" x="363.32" y="-143" font-family="Helvetica,sans-Serif" font-size="10.00">Gnss.cpp</text>
</a>
</g>
</g>
<!-- Node2 -->
<g id="Node000002" class="node">
<title>Node2</title>
<g id="a_Node000002"><a xlink:href="Gnss_8hpp.html" target="_top" xlink:title=" ">
<polygon fill="white" stroke="#666666" points="160.52,-94 16.12,-94 16.12,-74 160.52,-74 160.52,-94"/>
<text xml:space="preserve" text-anchor="middle" x="88.32" y="-81" font-family="Helvetica,sans-Serif" font-size="10.00">Components/Gnss/Gnss.hpp</text>
</a>
</g>
</g>
<!-- Node1&#45;&gt;Node2 -->
<g id="edge1_Node000001_Node000002" class="edge">
<title>Node1&#45;&gt;Node2</title>
<g id="a_edge1_Node000001_Node000002"><a xlink:title=" ">
<path fill="none" stroke="#63b8ff" d="M333.89,-138.58C288.29,-128.63 199.87,-109.34 142.5,-96.82"/>
<polygon fill="#63b8ff" stroke="#63b8ff" points="143.46,-93.45 132.94,-94.74 141.97,-100.29 143.46,-93.45"/>
</a>
</g>
</g>
<!-- Node4 -->
<g id="Node000004" class="node">
<title>Node4</title>
<g id="a_Node000004"><a xlink:title=" ">
<polygon fill="#e0e0e0" stroke="#999999" points="295.63,-94 179,-94 179,-74 295.63,-74 295.63,-94"/>
<text xml:space="preserve" text-anchor="middle" x="237.32" y="-81" font-family="Helvetica,sans-Serif" font-size="10.00">Fw/Logger/Logger.hpp</text>
</a>
</g>
</g>
<!-- Node1&#45;&gt;Node4 -->
<g id="edge3_Node000001_Node000004" class="edge">
<title>Node1&#45;&gt;Node4</title>
<g id="a_edge3_Node000001_Node000004"><a xlink:title=" ">
<path fill="none" stroke="#63b8ff" d="M343.63,-135.62C323.1,-125.85 290.68,-110.41 267.04,-99.15"/>
<polygon fill="#63b8ff" stroke="#63b8ff" points="268.77,-96.1 258.23,-94.96 265.76,-102.42 268.77,-96.1"/>
</a>
</g>
</g>
<!-- Node5 -->
<g id="Node000005" class="node">
<title>Node5</title>
<g id="a_Node000005"><a xlink:title=" ">
<polygon fill="#e0e0e0" stroke="#999999" points="412.71,-94 313.92,-94 313.92,-74 412.71,-74 412.71,-94"/>
<text xml:space="preserve" text-anchor="middle" x="363.32" y="-81" font-family="Helvetica,sans-Serif" font-size="10.00">Fw/Time/Time.hpp</text>
</a>
</g>
</g>
<!-- Node1&#45;&gt;Node5 -->
<g id="edge4_Node000001_Node000005" class="edge">
<title>Node1&#45;&gt;Node5</title>
<g id="a_edge4_Node000001_Node000005"><a xlink:title=" ">
<path fill="none" stroke="#63b8ff" d="M363.32,-135.62C363.32,-127.56 363.32,-115.65 363.32,-105.41"/>
<polygon fill="#63b8ff" stroke="#63b8ff" points="366.82,-105.63 363.32,-95.63 359.82,-105.63 366.82,-105.63"/>
</a>
</g>
</g>
<!-- Node6 -->
<g id="Node000006" class="node">
<title>Node6</title>
<g id="a_Node000006"><a xlink:title=" ">
<polygon fill="#e0e0e0" stroke="#999999" points="600.29,-94 430.35,-94 430.35,-74 600.29,-74 600.29,-94"/>
<text xml:space="preserve" text-anchor="middle" x="515.32" y="-81" font-family="Helvetica,sans-Serif" font-size="10.00">lib/NMEAParserLib/NMEAParser.h</text>
</a>
</g>
</g>
<!-- Node1&#45;&gt;Node6 -->
<g id="edge5_Node000001_Node000006" class="edge">
<title>Node1&#45;&gt;Node6</title>
<g id="a_edge5_Node000001_Node000006"><a xlink:title=" ">
<path fill="none" stroke="#63b8ff" d="M387.07,-135.62C412.31,-125.66 452.47,-109.81 481.12,-98.5"/>
<polygon fill="#63b8ff" stroke="#63b8ff" points="482.06,-101.89 490.08,-94.96 479.49,-95.38 482.06,-101.89"/>
</a>
</g>
</g>
<!-- Node7 -->
<g id="Node000007" class="node">
<title>Node7</title>
<g id="a_Node000007"><a xlink:title=" ">
<polygon fill="#e0e0e0" stroke="#999999" points="780.12,-100 618.52,-100 618.52,-68 780.12,-68 780.12,-100"/>
<text xml:space="preserve" text-anchor="start" x="626.52" y="-87" font-family="Helvetica,sans-Serif" font-size="10.00">lib/NMEAParserLib/NMEAParser</text>
<text xml:space="preserve" text-anchor="middle" x="699.32" y="-75" font-family="Helvetica,sans-Serif" font-size="10.00">Data.h</text>
</a>
</g>
</g>
<!-- Node1&#45;&gt;Node7 -->
<g id="edge6_Node000001_Node000007" class="edge">
<title>Node1&#45;&gt;Node7</title>
<g id="a_edge6_Node000001_Node000007"><a xlink:title=" ">
<path fill="none" stroke="#63b8ff" d="M392.84,-139.73C440.19,-131.27 535.06,-114.33 606.78,-101.52"/>
<polygon fill="#63b8ff" stroke="#63b8ff" points="607.36,-104.98 616.59,-99.77 606.13,-98.09 607.36,-104.98"/>
</a>
</g>
</g>
<!-- Node3 -->
<g id="Node000003" class="node">
<title>Node3</title>
<g id="a_Node000003"><a xlink:title=" ">
<polygon fill="#e0e0e0" stroke="#999999" points="176.63,-32 0,-32 0,0 176.63,0 176.63,-32"/>
<text xml:space="preserve" text-anchor="start" x="8" y="-19" font-family="Helvetica,sans-Serif" font-size="10.00">Components/Gnss/GnssComponent</text>
<text xml:space="preserve" text-anchor="middle" x="88.32" y="-7" font-family="Helvetica,sans-Serif" font-size="10.00">Ac.hpp</text>
</a>
</g>
</g>
<!-- Node2&#45;&gt;Node3 -->
<g id="edge2_Node000002_Node000003" class="edge">
<title>Node2&#45;&gt;Node3</title>
<g id="a_edge2_Node000002_Node000003"><a xlink:title=" ">
<path fill="none" stroke="#63b8ff" d="M88.32,-73.54C88.32,-65.72 88.32,-54.22 88.32,-43.63"/>
<polygon fill="#63b8ff" stroke="#63b8ff" points="91.82,-43.81 88.32,-33.81 84.82,-43.81 91.82,-43.81"/>
</a>
</g>
</g>
</g>
</svg>
